<svg width="84" height="88" viewBox="0 0 84 88" fill="none" xmlns="http://www.w3.org/2000/svg">
<path fill-rule="evenodd" clip-rule="evenodd" d="M26.5911 0.249781C14.3665 5.10385 7.15524 19.7576 12.2562 40.6769C12.6955 42.531 16.0376 45.179 16.3015 46.9442C16.4769 48.7104 13.4872 49.593 13.3995 51.1814C13.3995 54.3591 12.8717 57.1839 12.2562 59.7438L6.01195 58.2434C3.81305 60.8033 1.79038 63.1863 0.734769 65.7463C0.0316121 67.5995 -0.408519 69.8066 0.559418 71.9256C17.5334 82.6061 46.2909 87.814 63.3526 87.9908C65.9022 88.0788 66.7815 87.5491 67.6618 85.6958C67.9248 85.0772 68.2773 84.1945 68.6289 83.135C69.4206 81.0169 70.2114 78.1041 70.9154 74.4846C71.5309 70.9541 71.9711 66.7169 71.7948 62.3037C71.7948 60.0087 66.0784 58.3314 66.2537 55.9484C66.3423 54.1831 71.0031 51.7112 69.332 48.2686C65.3752 40.148 66.5176 33.9687 68.8928 29.0257C71.1793 23.9939 75.8402 19.6687 82.7876 14.9906C84.8111 13.5782 84.1948 10.4006 81.7328 9.95968L28.086 0.0729014C27.5582 -0.103098 27.0304 0.0729014 26.5911 0.248901V0.249781ZM28.086 5.72249L74.7846 14.2849C70.1237 17.9923 66.0784 21.8757 63.8795 26.6427C60.8898 33.086 60.8898 39.7062 64.1434 48.9753C64.8474 51.0934 59.0424 54.536 59.3949 56.5661C59.7456 58.6843 65.9907 61.5091 66.0784 63.5392C66.1661 67.5115 66.0784 70.2483 65.4629 73.514C64.9351 76.7797 64.3196 79.5165 63.4402 81.3697C62.6485 82.6941 60.4505 81.5466 59.6588 78.7218C58.7785 75.2793 59.2187 73.426 61.1537 70.7781C46.6425 69.5417 32.1313 66.5409 17.6211 61.0682C18.4119 58.3314 18.9397 56.743 19.0274 53.1236C19.0274 51.3583 22.0171 51.1814 21.7541 49.1513C21.5787 47.0331 18.148 41.6484 17.6211 39.3534C12.9594 20.5513 19.0274 9.6948 28.086 5.72249ZM33.7148 7.57576L29.4932 11.1072C27.7344 11.1072 26.0633 11.9898 24.92 13.3133L21.1386 14.196L23.5128 16.6679C23.2498 18.6101 23.8644 20.6402 25.3602 21.9637L24.92 27.2604L28.7015 23.465C30.6365 23.553 32.5715 22.7584 33.8024 21.258L37.0569 20.8162L35.2973 17.9034C35.4735 15.9613 34.858 13.9311 33.4509 12.6076L33.7148 7.57576ZM29.7571 14.8137C29.9324 14.8137 30.1972 14.8137 30.3726 14.9017C31.6921 15.5204 32.0437 17.2865 31.3405 18.4332C30.7241 19.6687 29.0539 20.2873 27.9983 19.4038C26.6788 18.4332 26.855 16.403 27.9983 15.4324C28.4376 14.9906 29.1416 14.7257 29.7571 14.8137ZM46.5548 22.4935L43.4765 24.4356L46.1156 28.7608L42.157 30.791L43.8281 34.0575L47.962 31.9385L51.3033 37.3232L54.3816 35.3811L51.3042 30.2612L56.3166 27.7013L54.6455 24.4356L49.3692 27.0844L46.5548 22.4935ZM38.1117 29.9083L36.3529 30.2612C34.3302 30.879 32.3076 31.9385 30.7241 33.4389L33.187 36.1757C34.7704 34.6753 36.793 33.7927 38.9034 33.4389L38.1117 29.9083ZM28.1737 36.7934L27.3828 38.2058C26.9196 39.4234 26.5086 40.6604 26.151 41.9133L25.888 44.4732L29.5809 44.8261C29.6685 43.4137 29.8448 42.0013 30.3726 40.6778C30.5479 39.8831 30.9881 39.2654 31.3405 38.6476L28.1737 36.7934ZM29.7571 47.8277L26.2395 48.7984C26.6788 50.2988 27.0304 51.8872 27.9106 53.2116C28.3499 54.2711 28.9654 55.1537 29.5809 56.0364L32.5706 53.8293C31.6921 52.5938 30.9004 51.2703 30.3726 49.769L29.7571 47.8277ZM34.7704 56.0364L32.5715 59.0371C34.5941 60.6264 37.0569 61.7739 39.4312 62.6566L40.8384 59.3029C38.6395 58.4194 36.5291 57.5368 34.7704 56.0364ZM44.2683 60.7144L42.7734 64.069C44.6198 64.9516 46.4663 66.0991 47.6096 67.9533L50.6878 65.9231C49.9847 64.7756 49.1053 63.893 48.0497 63.0103C46.8748 62.1112 45.6071 61.3415 44.2683 60.7144Z" fill="black"/>
</svg>
