<svg width="60" height="56" viewBox="0 0 60 56" fill="none" xmlns="http://www.w3.org/2000/svg">
<path d="M59.0163 49.798C57.6123 48.627 57.1153 48.339 56.8253 48.554C56.7514 48.1671 56.5538 47.8148 56.2623 47.55C55.8313 47.16 55.2443 46.988 54.6313 47.007C54.6259 46.7581 54.5699 46.5129 54.4668 46.2863C54.3636 46.0597 54.2155 45.8565 54.0313 45.689C53.5993 45.298 53.0113 45.126 52.3983 45.145C52.3933 44.8961 52.3376 44.6509 52.2346 44.4242C52.1317 44.1976 51.9835 43.9944 51.7993 43.827C51.3683 43.436 50.7803 43.264 50.1683 43.282C50.1633 43.033 50.1075 42.7877 50.0044 42.5611C49.9012 42.3344 49.7528 42.1312 49.5683 41.964C49.0673 41.509 48.3563 41.349 47.6363 41.448C49.2993 38.75 47.1743 35.696 45.5123 34.307C44.4693 33.437 44.9673 34.59 43.1233 37.41C40.6545 35.3419 38.2397 33.2102 35.8813 31.017C40.1273 28.081 44.8043 24.623 49.5073 20.696C61.2363 10.903 59.9593 0 59.9593 0C59.9593 0 58.6053 1.384 56.2773 3.002C52.9833 5.292 47.7353 8.062 41.6003 8.062L41.3273 8.06C41.3273 8.06 41.0123 13.532 29.9983 25.189C18.9863 13.531 18.6733 8.06 18.6733 8.06L18.4003 8.062C12.2653 8.062 7.01727 5.292 3.72327 3.002C1.39527 1.384 0.0412701 0 0.0412701 0C0.0412701 0 -1.23573 10.903 10.4913 20.695C15.1853 24.615 19.8673 28.085 24.1073 31.017C21.7522 33.2101 19.3404 35.3415 16.8743 37.409C15.0313 34.59 15.5293 33.436 14.4863 34.306C12.8243 35.695 10.6993 38.748 12.3623 41.447C11.6433 41.347 10.9313 41.508 10.4303 41.963C10.246 42.1304 10.0978 42.3336 9.99459 42.5602C9.89144 42.7868 9.83553 43.0321 9.83027 43.281C9.21727 43.262 8.63027 43.435 8.19927 43.826C7.80827 44.18 7.61927 44.648 7.60027 45.144C6.98727 45.124 6.39927 45.297 5.96827 45.688C5.57727 46.042 5.38827 46.51 5.36927 47.006C4.75627 46.987 4.16827 47.159 3.73827 47.549C3.4473 47.8141 3.2501 48.1664 3.17627 48.553C2.88527 48.338 2.38827 48.626 0.98427 49.797C-1.45373 51.835 1.22027 50.949 2.73427 52.744C4.96527 55.39 10.7923 57.911 15.5713 53.919C19.5033 50.638 21.2393 45.342 19.4743 41.251C20.8223 40.517 24.7503 38.32 30.0003 34.946C35.2563 38.325 39.1783 40.515 40.5253 41.252C38.7603 45.343 40.4963 50.639 44.4283 53.92C49.2073 57.912 55.0333 55.392 57.2653 52.745C58.7793 50.95 61.4543 51.836 59.0163 49.798ZM5.17327 51.487C6.06327 51.784 7.02227 51.671 7.65327 51.098C8.04227 50.745 8.23127 50.277 8.25027 49.781C8.86327 49.801 9.45027 49.628 9.88227 49.238C10.2723 48.884 10.4613 48.416 10.4803 47.919C11.0933 47.939 11.6813 47.765 12.1143 47.375C12.5033 47.022 12.6923 46.553 12.7113 46.057C13.3243 46.077 13.9123 45.905 14.3443 45.514C14.7303 45.162 14.9203 44.698 14.9423 44.205C18.5703 49.268 10.4873 56.032 5.17327 51.487ZM42.5293 9.542C46.9593 9.354 50.8983 7.861 53.9983 6.173C52.8013 9.915 50.2673 14.468 45.0433 18.827C40.8703 22.312 36.7173 25.423 32.8733 28.126C32.2513 27.5126 31.636 26.8925 31.0273 26.266C39.3463 17.45 41.8133 11.944 42.5293 9.542ZM17.4713 9.542C18.4223 12.729 22.4153 21.363 39.1453 35.98C33.4003 32.512 24.1933 26.54 14.9573 18.828C9.73427 14.469 7.20027 9.916 6.00227 6.174C9.10227 7.861 13.0423 9.354 17.4713 9.542ZM20.8553 35.979C22.3862 34.6417 23.8931 33.2772 25.3753 31.886C25.7003 32.108 26.0213 32.324 26.3413 32.539C24.531 33.7147 22.7021 34.8615 20.8553 35.979ZM45.0583 44.205C45.0803 44.697 45.2703 45.162 45.6563 45.514C46.0893 45.905 46.6773 46.077 47.2903 46.057C47.3093 46.553 47.4983 47.023 47.8873 47.375C48.3203 47.765 48.9083 47.938 49.5213 47.919C49.5413 48.416 49.7293 48.885 50.1193 49.238C50.5513 49.628 51.1393 49.801 51.7523 49.781C51.7713 50.277 51.9593 50.746 52.3493 51.098C52.9813 51.67 53.9403 51.784 54.8293 51.487C49.5133 56.032 41.4303 49.268 45.0583 44.205Z" fill="black"/>
</svg>
