<svg width="77" height="68" viewBox="0 0 77 68" fill="none" xmlns="http://www.w3.org/2000/svg">
<path d="M3.5 30.4806L10.675 30.8326C11.099 26.9804 12.3134 23.2586 14.2412 19.9026C16.169 16.5466 18.7684 13.6292 21.875 11.3352L17.955 5.28182C17.01 3.59251 17.5 1.44569 19.25 0.46026C21 -0.489974 23.065 0.0731269 24.045 1.76243L27.3 8.16771C30.838 6.63822 34.6488 5.84942 38.5 5.84942C42.3512 5.84942 46.162 6.63822 49.7 8.16771L52.955 1.76243C53.935 0.0731269 56 -0.489974 57.75 0.46026C59.5 1.44569 59.99 3.59251 59.045 5.28182L55.125 11.3352C58.2316 13.6292 60.831 16.5466 62.7588 19.9026C64.6866 23.2586 65.901 26.9804 66.325 30.8326L73.5 30.4806C74.4283 30.4806 75.3185 30.8514 75.9749 31.5114C76.6313 32.1714 77 33.0666 77 34C77 34.9334 76.6313 35.8286 75.9749 36.4886C75.3185 37.1486 74.4283 37.5194 73.5 37.5194L66.325 37.1674C65.901 41.0196 64.6866 44.7414 62.7588 48.0974C60.831 51.4534 58.2316 54.3708 55.125 56.6648L59.045 62.7182C59.99 64.4075 59.5 66.5543 57.75 67.5397C56 68.49 53.935 67.9269 52.955 66.2376L49.7 59.8323C46.162 61.3618 42.3512 62.1506 38.5 62.1506C34.6488 62.1506 30.838 61.3618 27.3 59.8323L24.045 66.2376C23.065 67.9269 21 68.49 19.25 67.5397C17.5 66.5543 17.01 64.4075 17.955 62.7182L21.875 56.6648C18.7684 54.3708 16.169 51.4534 14.2412 48.0974C12.3134 44.7414 11.099 41.0196 10.675 37.1674L3.5 37.5194C2.57174 37.5194 1.6815 37.1486 1.02513 36.4886C0.368749 35.8286 0 34.9334 0 34C0 33.0666 0.368749 32.1714 1.02513 31.5114C1.6815 30.8514 2.57174 30.4806 3.5 30.4806ZM28.245 31.7124C28.7 29.5656 29.855 27.6651 31.5 26.2222L25.69 17.2829C21.2988 20.6718 18.4178 25.6687 17.675 31.1845L28.245 31.7124ZM38.5 23.4418C39.62 23.4418 40.67 23.6178 41.65 23.9346L46.48 14.4674C44.03 13.4468 41.335 12.8837 38.5 12.8837C35.665 12.8837 32.97 13.4468 30.52 14.4674L35.35 23.9346C36.33 23.6178 37.38 23.4418 38.5 23.4418ZM48.755 31.7124L59.325 31.1845C58.5822 25.6687 55.7012 20.6718 51.31 17.2829L45.5 26.2222C47.145 27.6651 48.3 29.5656 48.755 31.7124ZM48.755 36.2876C48.3 38.4344 47.145 40.3349 45.5 41.7778L51.31 50.7171C55.7012 47.3282 58.5822 42.3313 59.325 36.8155L48.755 36.2876ZM38.5 44.5582C37.38 44.5582 36.33 44.3822 35.315 44.0654L30.52 53.5326C32.97 54.5532 35.665 55.1163 38.5 55.1163C41.335 55.1163 44.03 54.5532 46.48 53.5326L41.685 44.0654C40.67 44.3822 39.62 44.5582 38.5 44.5582ZM28.245 36.2876L17.675 36.8155C18.445 42.4465 21.385 47.4089 25.69 50.7171L31.5 41.7778C29.855 40.3349 28.7 38.4344 28.245 36.2876Z" fill="black"/>
</svg>
