<svg width="35" height="69" viewBox="0 0 35 69" fill="none" xmlns="http://www.w3.org/2000/svg">
<path d="M22.1538 12.3214V9.85714C22.8067 9.85714 23.4328 9.59751 23.8944 9.13537C24.356 8.67323 24.6154 8.04643 24.6154 7.39286C24.6154 6.73929 24.356 6.11249 23.8944 5.65034C23.4328 5.1882 22.8067 4.92857 22.1538 4.92857V2.46429C22.1538 1.81072 21.8945 1.18392 21.4329 0.721773C20.9713 0.259629 20.3451 0 19.6923 0L14.7692 0C14.1164 0 13.4903 0.259629 13.0287 0.721773C12.567 1.18392 12.3077 1.81072 12.3077 2.46429V4.92857C11.6549 4.92857 11.0288 5.1882 10.5671 5.65034C10.1055 6.11249 9.84615 6.73929 9.84615 7.39286C9.84615 8.04643 10.1055 8.67323 10.5671 9.13537C11.0288 9.59751 11.6549 9.85714 12.3077 9.85714V12.3214C12.3077 19.3693 0 27.4521 0 34.5V64.0714C0 65.3786 0.51868 66.6322 1.44194 67.5564C2.36519 68.4807 3.6174 69 4.92308 69H29.5385C30.8069 68.889 31.9957 68.334 32.896 67.4327C33.7963 66.5314 34.3506 65.3413 34.4615 64.0714V34.5C34.4615 27.8464 22.1538 18.975 22.1538 12.3214ZM17.2308 59.1429C13.9666 59.1429 10.8361 57.8447 8.52792 55.534C6.21978 53.2233 4.92308 50.0893 4.92308 46.8214C4.92308 43.5536 6.21978 40.4196 8.52792 38.1089C10.8361 35.7981 13.9666 34.5 17.2308 34.5C20.495 34.5 23.6255 35.7981 25.9336 38.1089C28.2418 40.4196 29.5385 43.5536 29.5385 46.8214C29.5385 50.0893 28.2418 53.2233 25.9336 55.534C23.6255 57.8447 20.495 59.1429 17.2308 59.1429Z" fill="black"/>
</svg>
