<svg width="87" height="70" viewBox="0 0 87 70" fill="none" xmlns="http://www.w3.org/2000/svg">
<path d="M87 66.2786C56.8763 79.1673 30.0947 53.3971 0 66.2786V3.71779C30.0947 -9.16366 56.8763 16.6065 87 3.71779V66.2786Z" fill="#424242"/>
<path d="M24.244 38.1296C25.462 38.6951 26.7887 38.2601 27.202 37.1073C30.4282 38.7603 32.0377 39.7028 35.264 41.6603C37.5115 41.5081 38.628 41.4646 40.8755 41.3848C35.8657 38.1948 33.3572 36.5853 28.3402 33.9318C28.7535 32.7863 28.0937 31.3291 26.8757 30.7128C25.6577 30.0966 24.331 30.5823 23.9177 31.7496C23.6857 32.4021 23.7945 33.1271 24.1425 33.7433C23.519 33.9101 23.0042 34.3596 22.7795 35.0193C22.3662 36.1938 23.026 37.5641 24.244 38.1296Z" fill="white"/>
<path d="M61.3059 51.0708C60.0879 50.4763 58.7612 50.8823 58.3479 52.0206C55.1217 50.3023 53.5122 49.3308 50.2859 47.3443C48.0384 47.4676 46.9219 47.5111 44.6744 47.5836C49.6842 50.7808 52.1927 52.4266 57.2097 55.1816C56.7964 56.3126 57.4562 57.7843 58.6742 58.4296C59.8922 59.0748 61.2189 58.6253 61.6322 57.4653C61.8642 56.8201 61.7554 56.0878 61.4074 55.4716C61.7214 55.3982 62.0115 55.2458 62.25 55.0288C62.4886 54.8118 62.6677 54.5375 62.7704 54.2318C63.1837 53.0573 62.5239 51.6653 61.3059 51.0708Z" fill="white"/>
<path d="M58.348 45.3143C58.7612 46.6193 60.0807 47.5256 61.306 47.2936C62.524 47.0688 63.1837 45.8146 62.7705 44.5386C62.5403 43.8448 62.0524 43.2659 61.4075 42.9218C61.7555 42.4071 61.857 41.7038 61.6322 40.9933C61.219 39.7101 59.8995 38.8473 58.6742 39.0286C57.449 39.2098 56.7965 40.3771 57.2097 41.6893C47.2192 42.7406 37.1635 42.3998 27.202 43.8208C26.7887 42.5303 25.4692 41.6531 24.244 41.9068C23.026 42.1678 22.3662 43.4366 22.7795 44.6981C23.0089 45.3833 23.4984 45.9509 24.1425 46.2786C23.7945 46.8078 23.693 47.5038 23.9177 48.2143C24.331 49.4831 25.6505 50.3096 26.8757 50.1066C28.101 49.9036 28.7535 48.7146 28.3402 47.4168C38.3162 46.1698 48.372 46.5178 58.348 45.3143Z" fill="white"/>
<path d="M49.039 16.4956C45.1312 13.2838 40.4187 11.7903 36.5037 12.7908C32.5815 13.7913 28.9202 17.2278 32.6322 26.7616C32.6322 26.7616 30.6457 32.7356 36.946 33.0328C36.946 33.0328 37.9537 33.1488 37.8885 34.6496V35.3673C37.8885 35.8313 38.2655 36.3098 38.7222 36.4403C38.7295 36.4403 38.7367 36.4476 38.744 36.4476C39.208 36.5853 39.5777 36.3171 39.5777 35.8603V35.1643C39.9837 35.2803 40.1795 35.3456 40.5855 35.4616V36.1576C40.5855 36.6216 40.9625 37.1001 41.4192 37.2451H41.4265C41.8905 37.3828 42.2602 37.1218 42.2602 36.6651V35.9691L43.268 36.2736V36.9696C43.268 37.4336 43.645 37.9193 44.1017 38.0571C44.5657 38.1948 44.9355 37.9338 44.9355 37.4771V36.7811L45.9432 37.0856V37.7816C45.9432 38.2456 46.3202 38.7313 46.777 38.8618C46.7842 38.8618 46.7915 38.8691 46.7987 38.8691C47.2627 39.0068 47.6325 38.7386 47.6325 38.2818V37.5641C47.5672 36.0271 48.575 36.4911 48.575 36.4911C54.8825 39.8043 52.8887 32.5616 52.8887 32.5616C56.6225 24.8911 52.9612 19.7146 49.039 16.4956ZM38.4032 28.6031C36.6632 28.0956 35.2495 26.3048 35.2495 24.5576C35.2495 22.8103 36.6632 21.7808 38.4032 22.2883C40.1505 22.7958 41.557 24.6373 41.557 26.3773C41.5642 28.1246 40.1505 29.1106 38.4032 28.6031ZM43.8262 33.6056C43.181 33.0908 42.4342 32.8661 41.789 32.9893C41.5352 33.0401 41.3757 32.9096 41.3757 32.1918C41.3757 31.7278 41.3902 31.3291 41.4192 30.9883C41.4917 30.1908 42.0935 29.7558 42.804 29.9661C43.5217 30.1836 44.1162 30.9811 44.1887 31.8221C44.2177 32.1773 44.2322 32.5906 44.2322 33.0546C44.2322 33.7651 44.08 33.8086 43.8262 33.6056ZM47.241 31.2421C45.501 30.7273 44.0872 28.8858 44.0872 27.1386C44.0872 25.3913 45.501 24.4126 47.241 24.9273C48.981 25.4421 50.3947 27.2546 50.3947 28.9946C50.3947 30.7418 48.981 31.7641 47.241 31.2421Z" fill="white"/>
</svg>
