<svg width="59" height="56" viewBox="0 0 59 56" fill="none" xmlns="http://www.w3.org/2000/svg">
<path d="M56.05 0C51.92 0 48.4272 3.43976 48.0644 3.81115L44.8607 7.01216L41.6422 3.80525C41.3683 3.53193 41.0433 3.31519 40.6856 3.16741C40.3278 3.01963 39.9445 2.94371 39.5574 2.94398C39.1703 2.94426 38.7871 3.02072 38.4296 3.169C38.0721 3.31729 37.7473 3.53449 37.4739 3.8082L33.807 7.47492C31.0162 6.42365 28.0576 5.88735 25.075 5.8921C11.2484 5.8921 0 17.131 0 30.946C0 44.7611 11.2484 56 25.075 56C38.9016 56 50.15 44.7611 50.15 30.946C50.15 28.2668 49.7252 25.6405 48.8874 23.1115L52.8552 19.1471C53.4073 18.5931 53.717 17.843 53.7164 17.0611C53.7159 16.2793 53.4051 15.5296 52.8522 14.9764L49.0378 11.1741L52.2475 7.96716C52.923 7.29217 54.7402 5.89505 56.05 5.89505H59V0H56.05ZM42.7425 23.5153C43.7426 25.8852 44.25 28.3847 44.25 30.946C44.25 41.51 35.6478 50.1049 25.075 50.1049C14.5022 50.1049 5.9 41.51 5.9 30.946C5.9 20.3821 14.5022 11.7871 25.075 11.7871C27.907 11.7871 30.6505 12.4061 33.2229 13.6264C34.3469 14.1599 35.6921 13.93 36.5741 13.0487L39.5654 10.0599L46.5982 17.0662L43.3768 20.2849C42.9608 20.6988 42.6781 21.2275 42.565 21.8031C42.452 22.3788 42.5138 22.9751 42.7425 23.5153Z" fill="black"/>
</svg>
